<svg version="1.1" viewBox="0 0 100 100" xmlns="http://www.w3.org/2000/svg">
	<rect width="100" height="100" rx="12" ry="12" fill="#0ec6d7"/>
	<g transform="matrix(.094655 0 0 .094655 6.8323 6.8322)" fill="#fafafa">
		<path d="m122.31 657.73c4.3 0 10.9-3.5 21.9-10.301 25.4-15.5 45.5-46.8 59.9-88 19.9-57 28.8-133 25.9-213.1-2.9-78.5 29.1-154.5 72.2-219 13.899-20.8 43.6-45.601 14.7-45.601-68.8 0-407.4 174-293.8 343.7 108.6 162.3 80.101 232.3 99.2 232.3zm487.6-530.3c43 64.5 75 140.6 72.199 219-2.899 80 6 156.1 25.9 213.1 14.4 41.2 34.5 72.5 59.9 88 11.1 6.8 17.699 10.3 21.899 10.3 19 0-9.399-70.1 99.2-232.3 113.6-169.7-225-343.7-293.8-343.7-28.998-1e-3 0.802 24.799 14.702 45.599z"/>
		<path d="m223.61 603.93c5.4 11.2 11.1 22.4 17 33.5 67.3 126.1 58.9 143 58.9 174.9 0 29.2 66.8 49.9 136.4-5.5v-57c-26-11.1-57.4-39.7-57.4-65.3 0-32.601 34.4-37.5 76.9-37.5h1.2c42.5 0 76.901 4.899 76.901 37.5 0 25.6-31.4 54.2-57.4 65.3v57c70 55.4 136.4 34.7 136.4 5.5 0-32-8.4-48.8 58.9-174.9 5.899-11.1 11.6-22.3 17-33.5-8.5-17.6-15.801-37.699-21.801-59.899-15.399-56.8-22.199-125.6-19.5-198.8 1-27.699-2.8-56.6-11.399-86-7-24-17.101-48.199-30.101-72.1-21.8-40.2-47.699-69.8-47.699-69.8-8.2-12.101-10.2-22.9-9.7-31.601-50.8-17.1-92.201-15.1-92.201-15.1-0.2 0-41.4-2-92.2 15.1 0.601 8.7-1.5 19.5-9.7 31.601 0 0-25.899 29.6-47.699 69.8-13 23.9-23.101 48.2-30.101 72.1-8.6 29.301-12.399 58.301-11.399 86 2.699 73.301-4.101 142-19.5 198.8-6.001 22.199-13.301 42.199-21.801 59.899zm342.3-267.6c26 0 47.1 21.1 47.1 47.1s-21.1 47.101-47.1 47.101-47.101-21.101-47.101-47.101 21.101-47.1 47.101-47.1zm-219.8 0c26 0 47.101 21.1 47.101 47.1s-21.101 47.101-47.101 47.101-47.1-21.101-47.1-47.101 21.1-47.1 47.1-47.1z"/>
	</g>
</svg>
