<?xml version="1.0" standalone="no"?>
<!DOCTYPE svg PUBLIC "-//W3C//DTD SVG 20010904//EN"
 "http://www.w3.org/TR/2001/REC-SVG-20010904/DTD/svg10.dtd">
<svg version="1.0" xmlns="http://www.w3.org/2000/svg"
 width="700.000000pt" height="700.000000pt" viewBox="0 0 700.000000 700.000000"
 preserveAspectRatio="xMidYMid meet">
<metadata>
Created by potrace 1.11, written by Peter Selinger 2001-2013
</metadata>
<g transform="translate(0.000000,700.000000) scale(0.100000,-0.100000)"
fill="#000000" stroke="none">
<path d="M3369 6456 c-2 -2 -40 -6 -85 -10 -45 -3 -105 -11 -135 -16 -30 -6
-70 -13 -89 -16 -32 -5 -122 -28 -223 -56 -39 -11 -40 -14 -51 -95 -8 -58 -48
-138 -97 -198 -311 -376 -547 -864 -622 -1285 -29 -157 -30 -184 -32 -580 -3
-360 -7 -486 -19 -596 -3 -22 -7 -68 -11 -104 -32 -343 -127 -752 -235 -1010
-18 -41 -37 -87 -42 -101 -12 -28 -29 9 214 -469 75 -146 157 -314 183 -375
26 -60 51 -119 56 -130 26 -61 53 -140 80 -234 28 -95 32 -125 36 -284 6 -172
7 -179 32 -218 58 -85 171 -132 326 -133 135 -1 185 7 307 48 89 29 204 88
291 147 101 69 94 46 93 288 l-1 214 -45 25 c-233 126 -388 314 -392 475 -2
127 57 202 200 251 23 8 42 13 42 11 0 -3 11 0 24 5 32 12 180 22 332 23 419
2 588 -81 587 -290 -1 -154 -179 -368 -398 -478 l-40 -20 0 -218 -1 -218 51
-37 c129 -97 275 -168 415 -203 125 -32 297 -32 390 0 82 29 144 75 170 126
17 34 20 61 20 165 0 69 2 141 4 160 4 32 7 48 21 113 34 160 121 364 351 823
l207 410 -37 84 c-76 173 -165 478 -201 692 -3 18 -8 40 -10 48 -2 8 -7 40
-10 70 -3 30 -8 62 -10 70 -3 8 -7 38 -10 65 -3 28 -8 66 -10 86 -2 20 -7 67
-10 105 -3 38 -8 96 -11 129 -3 33 -7 242 -8 465 -2 223 -6 425 -10 450 -22
153 -30 195 -53 285 -96 385 -300 785 -577 1132 -79 97 -116 179 -116 253 0
32 -4 39 -27 48 -40 15 -122 39 -163 48 -19 4 -39 9 -45 10 -5 1 -26 5 -45 8
-19 4 -42 9 -50 11 -8 2 -35 7 -60 10 -25 3 -61 8 -80 11 -40 6 -366 14 -371
10z m-621 -2050 c290 -78 364 -452 125 -635 -79 -61 -194 -87 -292 -67 -108
22 -222 120 -261 223 -103 275 146 554 428 479z m1748 -23 c135 -66 217 -207
208 -357 -4 -63 -42 -150 -90 -204 -121 -137 -310 -164 -463 -68 -62 39 -101
84 -134 155 -76 160 -13 368 137 456 104 61 240 68 342 18z"/>
<path d="M2262 6345 c-350 -91 -839 -336 -1247 -625 -478 -340 -790 -688 -935
-1045 -21 -52 -37 -95 -35 -95 3 0 0 -11 -5 -26 -6 -14 -12 -37 -15 -52 -2
-15 -9 -49 -14 -77 -10 -50 -8 -248 3 -295 3 -14 9 -40 12 -59 21 -107 80
-223 250 -491 57 -91 110 -176 118 -190 7 -14 35 -65 63 -115 147 -265 302
-645 348 -854 3 -11 7 -29 9 -39 6 -25 35 -172 41 -207 3 -16 10 -59 16 -95 7
-36 12 -67 12 -70 -1 -3 8 -17 19 -33 24 -34 57 -30 138 15 204 114 343 281
465 559 57 131 133 366 150 468 3 19 7 37 9 40 2 3 7 24 10 46 4 22 8 47 11
55 2 8 6 33 10 54 3 21 7 48 10 60 10 45 37 272 51 421 3 33 7 238 8 455 3
346 10 543 21 560 2 3 7 33 10 65 17 151 106 446 201 662 109 251 320 610 414
703 18 18 90 121 104 148 18 35 10 64 -20 76 -34 13 -143 4 -232 -19z"/>
<path d="M4493 6355 c-14 -10 -20 -23 -18 -36 5 -26 46 -96 75 -129 169 -191
390 -578 514 -902 48 -126 117 -362 131 -448 33 -205 36 -263 40 -665 1 -231
5 -438 8 -460 3 -22 8 -76 12 -120 3 -44 10 -111 16 -150 5 -38 12 -88 15
-110 5 -41 20 -131 29 -175 3 -14 8 -38 11 -55 2 -16 9 -46 14 -65 5 -19 11
-46 14 -60 27 -135 104 -355 177 -506 89 -187 226 -356 353 -437 54 -35 159
-87 176 -87 37 0 62 57 76 175 3 22 7 47 10 55 3 8 8 33 10 55 16 116 107 438
155 542 10 24 19 46 19 49 0 31 192 419 279 565 9 15 31 53 50 85 19 33 72
116 118 186 117 180 184 321 200 423 3 17 9 50 13 75 9 46 6 258 -4 298 -10
39 -16 61 -21 83 -35 162 -171 405 -334 601 -80 94 -252 266 -350 348 -29 25
-63 53 -75 64 -84 73 -348 258 -496 347 -267 163 -585 317 -815 397 -184 64
-357 89 -402 57z"/>
</g>
</svg>
